<?xml version="1.0" standalone="no"?>
<!DOCTYPE svg PUBLIC "-//W3C//DTD SVG 20010904//EN"
 "http://www.w3.org/TR/2001/REC-SVG-20010904/DTD/svg10.dtd">
<svg version="1.0" xmlns="http://www.w3.org/2000/svg"
 width="640.000000pt" height="640.000000pt" viewBox="0 0 640.000000 640.000000"
 preserveAspectRatio="xMidYMid meet">
<metadata>
Created by potrace 1.11, written by Peter Selinger 2001-2013
</metadata>
<g transform="translate(0.000000,640.000000) scale(0.100000,-0.100000)"
fill="#000000" stroke="none">
<path d="M2990 4985 c-30 -8 -86 -26 -125 -39 -38 -14 -104 -35 -145 -47 -121
-35 -275 -120 -359 -198 -18 -17 -37 -31 -42 -31 -5 0 -9 -4 -9 -8 0 -5 -28
-42 -63 -83 -92 -110 -119 -151 -104 -162 8 -6 6 -7 -6 -3 -9 3 -32 -3 -50
-14 -17 -11 -39 -23 -47 -27 -30 -14 -92 -79 -130 -138 -31 -49 -125 -263
-135 -309 -1 -6 -5 -18 -8 -26 -4 -8 -10 -46 -15 -85 -11 -82 3 -138 49 -197
16 -20 29 -41 29 -46 0 -5 10 -22 22 -38 13 -15 17 -25 10 -20 -19 12 -14 -3
19 -52 31 -45 31 -47 19 -104 -12 -53 -30 -79 -30 -43 0 29 -38 92 -76 125
l-37 32 -13 -24 c-7 -14 -15 -49 -18 -79 -4 -30 -3 -47 0 -39 17 36 27 36 61
-1 32 -35 33 -40 33 -117 0 -46 9 -119 20 -167 11 -47 20 -108 20 -135 0 -47
-1 -50 -26 -50 -16 0 -36 11 -51 28 -20 21 -23 23 -14 5 15 -30 50 -53 82 -53
24 0 28 -5 34 -42 33 -197 173 -452 349 -636 142 -148 251 -225 407 -290 183
-75 461 -99 627 -54 150 41 296 128 458 274 131 117 211 224 285 381 21 45 47
88 58 94 12 8 18 19 15 28 -4 8 1 17 9 21 19 7 41 59 34 79 -4 8 1 21 9 30 12
11 12 15 2 15 -8 1 -6 6 6 15 11 8 16 18 11 22 -4 5 -10 2 -12 -4 -5 -15 -23
-17 -23 -4 0 5 6 16 13 23 15 14 17 20 17 42 0 8 9 17 19 21 10 3 21 18 24 33
5 25 4 25 -9 8 -12 -18 -13 -17 -11 12 1 16 5 28 10 25 4 -2 7 6 7 19 0 17 2
20 9 9 22 -35 43 124 27 199 -8 35 -7 37 42 67 47 29 49 33 54 83 4 34 11 56
22 62 55 31 77 168 52 323 -28 166 -48 259 -58 273 -6 6 -8 12 -4 12 20 0 -72
137 -138 207 -22 24 -41 52 -43 64 -2 11 -14 45 -28 75 -14 30 -25 59 -25 64
0 6 -3 10 -8 10 -4 0 -16 17 -27 38 -31 58 -127 173 -207 247 -63 58 -236 185
-253 185 -3 0 -23 11 -44 24 -21 13 -87 41 -147 62 -101 35 -119 38 -239 41
-92 2 -146 -2 -185 -12z m339 -65 c74 -19 251 -93 284 -120 6 -5 30 -25 52
-45 22 -19 46 -35 53 -35 7 0 15 -7 18 -15 4 -8 13 -15 20 -15 8 0 18 -8 21
-17 9 -23 58 -73 72 -73 6 0 11 -15 11 -33 0 -18 9 -49 19 -70 25 -48 33 -84
22 -91 -5 -3 -28 1 -51 9 -69 25 -60 17 45 -35 55 -28 105 -56 110 -63 6 -6
19 -17 30 -23 16 -9 21 -24 23 -69 2 -31 9 -67 17 -79 18 -28 39 -180 25 -184
-5 -2 -10 -28 -10 -58 0 -45 -3 -54 -18 -54 -10 0 -23 -5 -29 -11 -8 -8 -17
-8 -31 0 -11 6 -39 13 -63 16 -42 5 -98 19 -199 51 -129 41 -560 115 -750 129
-116 8 -544 9 -645 1 -49 -5 -128 -11 -175 -15 -125 -10 -190 -4 -190 19 0 10
4 20 9 22 5 2 12 17 15 33 9 53 21 85 31 85 6 0 10 9 10 19 0 10 6 25 13 34 8
9 11 21 7 27 -3 5 1 17 9 26 9 8 17 27 17 42 2 52 4 56 28 68 13 7 28 20 33
28 5 9 15 16 23 16 8 0 40 14 72 32 32 18 105 45 163 60 84 23 78 33 -8 11
-15 -4 -22 -1 -20 7 4 19 119 130 133 130 7 0 15 6 18 13 3 7 24 26 48 42 24
17 46 33 49 37 3 4 26 16 51 27 25 11 57 29 71 40 14 11 37 22 52 25 15 3 33
10 40 16 19 15 124 51 176 61 69 12 206 2 299 -21z m571 -404 c0 -3 -4 -8 -10
-11 -5 -3 -10 -1 -10 4 0 6 5 11 10 11 6 0 10 -2 10 -4z m-950 -596 c85 -6
193 -17 240 -26 205 -37 338 -68 375 -87 22 -11 71 -26 108 -33 38 -7 107 -32
155 -55 48 -23 97 -46 109 -52 28 -13 39 -43 22 -63 -11 -14 -14 -14 -24 -1
-25 34 -100 47 -270 47 -104 0 -173 -4 -190 -12 -32 -15 -43 -53 -21 -77 9
-10 13 -21 9 -25 -5 -4 -1 -7 7 -6 8 1 67 1 130 0 l115 -3 -189 -14 c-116 -8
-192 -10 -195 -4 -3 5 -31 11 -63 12 -31 2 -54 1 -51 -3 6 -11 -29 -9 -47 2
-8 5 -10 10 -5 11 6 1 -3 5 -20 8 -16 4 -36 3 -43 -2 -8 -6 -27 -4 -55 6 -44
16 -150 47 -162 47 -3 0 -3 -4 0 -10 3 -5 3 -10 -2 -10 -10 0 -223 38 -283 51
-25 5 -78 14 -119 21 -52 8 -69 14 -55 19 13 5 3 8 -29 8 -39 1 -50 5 -54 20
-4 14 -23 22 -86 34 -48 9 -69 15 -49 16 48 2 39 21 -10 22 -24 1 -36 3 -27 6
9 2 19 17 22 32 10 50 173 104 377 124 75 7 244 6 380 -3z m-455 -311 c245
-37 420 -85 475 -130 l25 -20 -41 20 c-117 57 -574 147 -574 113 0 -5 -30 -12
-66 -15 -37 -4 -74 -13 -83 -20 -9 -8 -22 -12 -30 -9 -9 3 -12 0 -9 -9 3 -8
-6 -23 -20 -33 l-25 -19 7 27 c12 46 49 95 85 109 39 16 72 14 256 -14z m88
-133 c88 -15 214 -51 232 -67 5 -5 19 -9 31 -9 13 0 25 -4 29 -10 5 -9 43 -22
112 -40 27 -6 35 -4 47 14 15 20 15 19 11 -19 -2 -24 1 -42 8 -47 18 -11 85
-10 92 2 17 28 103 -3 125 -45 18 -34 27 -31 28 8 1 18 6 44 11 58 9 20 10 18
5 -13 -9 -54 2 -87 32 -99 22 -8 25 -14 22 -39 -5 -35 -2 -36 24 -13 19 17 19
16 13 -7 -5 -24 -2 -26 67 -44 40 -10 104 -25 142 -33 65 -14 70 -14 83 3 7
10 13 26 13 37 0 10 6 25 14 33 12 12 16 10 24 -14 l10 -27 1 28 c1 35 16 35
91 -3 33 -16 63 -30 67 -30 17 0 -98 70 -153 93 -66 28 -224 59 -224 44 0 -5
-7 -4 -15 3 -8 7 -21 10 -29 7 -8 -3 -17 -3 -20 0 -10 11 16 33 39 33 12 0 25
3 29 7 11 12 37 15 116 15 100 1 194 -10 198 -22 2 -5 9 -10 15 -10 13 0 44
-16 124 -61 l53 -30 -6 33 c-3 18 -6 43 -7 56 -1 12 -9 25 -19 28 -9 2 -19 11
-22 19 -3 8 -12 15 -21 15 -8 0 -15 4 -15 8 0 8 -98 43 -130 47 -8 1 -35 8
-59 14 -25 7 -112 13 -195 14 -136 2 -155 0 -194 -19 -25 -13 -38 -16 -31 -8
6 8 37 22 68 31 83 24 249 20 451 -11 25 -4 56 -9 70 -10 128 -15 167 -32 192
-79 19 -37 20 -53 15 -162 -4 -89 -11 -134 -27 -174 -51 -129 -76 -159 -166
-196 -33 -14 -50 -25 -39 -26 11 0 14 -3 8 -6 -7 -2 -13 -11 -13 -20 0 -8 -10
-28 -21 -45 -15 -21 -20 -38 -15 -59 6 -32 -19 -94 -48 -118 -9 -8 -16 -18
-16 -24 0 -25 -43 -98 -55 -93 -8 2 -15 -1 -18 -7 -5 -14 -88 -42 -154 -52
-36 -6 -42 -4 -48 15 -4 12 -4 24 -1 27 11 12 -36 83 -77 117 -45 36 -185 106
-215 106 -15 1 -15 2 2 15 11 8 16 15 10 15 -5 0 -1 7 8 14 47 35 60 131 31
223 -15 48 -20 53 -45 53 -20 0 -28 -5 -28 -18 0 -10 4 -22 9 -27 6 -6 14 -30
20 -54 11 -52 1 -80 -41 -111 -64 -47 -224 -22 -255 40 -16 31 -17 94 -2 122
17 32 0 36 -26 5 -51 -59 -51 -151 2 -200 12 -12 23 -24 23 -27 0 -3 -51 -6
-113 -6 -86 -1 -126 -6 -175 -23 -116 -40 -170 -87 -158 -136 l6 -24 -72 30
c-114 47 -188 93 -259 161 -75 71 -93 102 -104 173 -9 67 -7 287 3 294 15 10
23 52 28 150 6 109 22 167 23 85 1 -43 5 -53 26 -64 32 -17 52 -1 89 75 29 59
63 98 79 88 5 -3 12 -1 16 5 4 6 25 14 46 18 22 3 42 8 44 10 8 8 67 4 154
-10z m-439 -23 c-4 -16 -10 -32 -15 -37 -5 -5 -4 6 1 25 6 18 10 35 10 36 0 2
2 3 5 3 3 0 2 -12 -1 -27z m1426 -256 c0 -22 -37 -49 -62 -45 -17 2 -24 10
-26 31 -3 26 -2 27 42 27 32 0 46 -4 46 -13z m-955 -750 l70 -3 46 -79 c38
-67 53 -84 94 -107 27 -14 53 -24 57 -22 4 3 8 1 8 -4 0 -14 -94 -52 -127 -52
-40 1 -109 34 -127 62 -8 13 -24 53 -36 90 -13 42 -32 78 -51 97 -17 17 -25
29 -17 26 7 -3 45 -6 83 -8z m360 -45 c128 -19 199 -34 217 -46 34 -23 30 -30
-26 -46 -77 -21 -266 -14 -251 11 4 5 -5 9 -19 9 -13 0 -26 3 -28 8 -1 4 -19
15 -38 25 -19 10 -48 29 -65 42 l-30 25 25 0 c14 -1 111 -13 215 -28z m475
-92 c7 0 -5 -19 -26 -43 -22 -24 -47 -58 -56 -75 -24 -45 -73 -72 -130 -72
-41 0 -54 5 -89 37 l-42 38 44 8 c24 5 50 9 57 9 6 1 12 5 12 10 0 4 5 8 11 8
5 0 39 30 73 66 l64 67 34 -27 c19 -14 41 -26 48 -26z"/>
<path d="M2748 4583 c12 -2 32 -2 45 0 12 2 2 4 -23 4 -25 0 -35 -2 -22 -4z"/>
<path d="M2978 4583 c12 -2 30 -2 40 0 9 3 -1 5 -23 4 -22 0 -30 -2 -17 -4z"/>
<path d="M2638 4573 c7 -3 16 -2 19 1 4 3 -2 6 -13 5 -11 0 -14 -3 -6 -6z"/>
<path d="M3128 4573 c7 -3 16 -2 19 1 4 3 -2 6 -13 5 -11 0 -14 -3 -6 -6z"/>
<path d="M3208 4563 c7 -3 16 -2 19 1 4 3 -2 6 -13 5 -11 0 -14 -3 -6 -6z"/>
<path d="M3748 4443 c7 -3 16 -2 19 1 4 3 -2 6 -13 5 -11 0 -14 -3 -6 -6z"/>
<path d="M2458 3829 c-20 -6 -54 -26 -76 -45 -23 -20 -52 -35 -69 -35 -15 -1
8 -6 52 -10 44 -5 90 -6 103 -4 12 3 22 1 22 -3 0 -5 12 -7 26 -4 14 2 29 0
33 -5 3 -5 44 -17 91 -26 81 -16 199 -48 248 -67 45 -19 92 23 77 69 -7 23 -1
21 -201 82 -174 52 -248 64 -306 48z"/>
<path d="M3383 3523 c9 -2 23 -2 30 0 6 3 -1 5 -18 5 -16 0 -22 -2 -12 -5z"/>
<path d="M2380 3354 c-36 -8 -72 -16 -80 -18 -8 -3 -21 -5 -28 -5 -7 -1 -11
-5 -8 -10 4 -5 22 -5 43 0 21 5 48 9 60 9 20 0 21 -2 11 -31 -6 -17 -7 -34 -2
-38 27 -23 247 -63 295 -53 10 2 19 12 22 23 7 26 37 25 37 -3 0 -42 11 -10
12 36 0 27 5 46 12 46 23 0 76 -40 91 -70 18 -34 30 -40 20 -10 -3 11 -8 38
-10 61 -2 23 -6 43 -9 46 -11 11 -217 33 -306 32 -52 -1 -124 -7 -160 -15z
m160 -24 c0 -31 -36 -45 -66 -25 -40 26 -27 41 39 44 21 1 27 -4 27 -19z"/>
<path d="M4051 3327 c-6 -15 -4 -24 5 -30 8 -4 14 -15 14 -24 0 -12 5 -10 24
8 19 18 22 27 14 44 -13 28 -47 30 -57 2z"/>
<path d="M4166 2833 c-6 -14 -5 -15 5 -6 7 7 10 15 7 18 -3 3 -9 -2 -12 -12z"/>
</g>
</svg>
