<?xml version="1.0" standalone="no"?>
<!DOCTYPE svg PUBLIC "-//W3C//DTD SVG 20010904//EN"
 "http://www.w3.org/TR/2001/REC-SVG-20010904/DTD/svg10.dtd">
<svg version="1.0" xmlns="http://www.w3.org/2000/svg"
 width="520.000000pt" height="520.000000pt" viewBox="0 0 520.000000 520.000000"
 preserveAspectRatio="xMidYMid meet">
<metadata>
Created by potrace 1.11, written by Peter Selinger 2001-2013
</metadata>
<g transform="translate(0.000000,520.000000) scale(0.100000,-0.100000)"
fill="#000000" stroke="none">
<path d="M0 2600 l0 -2600 2600 0 2600 0 0 2600 0 2600 -2600 0 -2600 0 0
-2600z m1690 2440 c-157 -59 -389 -178 -529 -271 l-124 -82 -391 196 -391 196
770 0 770 0 -105 -39z m1255 16 c461 -71 844 -237 1210 -524 90 -71 306 -287
377 -377 315 -401 491 -839 538 -1340 5 -60 10 -120 10 -132 0 -21 -211 82
-1955 954 -1075 538 -1955 981 -1955 984 0 16 270 177 385 229 274 124 527
190 860 224 83 8 434 -4 530 -18z m2135 -813 l-1 -838 -39 105 c-58 154 -178
388 -265 520 -306 460 -751 816 -1265 1010 l-105 39 838 1 837 0 0 -837z
m-110 -1643 c0 -3 -1096 -553 -2435 -1223 l-2435 -1217 0 2440 0 2440 2435
-1217 c1339 -670 2435 -1220 2435 -1223z m106 -147 c-48 -620 -279 -1146 -696
-1577 -824 -853 -2137 -1001 -3133 -354 -42 28 -77 53 -77 57 0 5 3895 1958
3909 1960 2 1 0 -38 -3 -86z m4 -1498 l0 -835 -837 0 -838 1 105 39 c513 194
962 553 1266 1011 83 126 216 388 264 521 19 54 36 98 38 98 1 0 2 -376 2
-835z m-3916 -526 c137 -91 370 -210 526 -269 l105 -39 -770 0 -770 0 385 194
c212 107 389 194 394 194 4 1 63 -35 130 -80z"/>
</g>
</svg>
